<svg width="14" height="18" viewBox="0 0 14 18" fill="none" xmlns="http://www.w3.org/2000/svg">
<path d="M11.6667 4.6C11.6667 3.64522 11.2452 2.72955 10.4951 2.05442C9.74495 1.37928 8.72753 1 7.66667 1H2.33333C1.97971 1 1.64057 1.12643 1.39052 1.35147C1.14048 1.57652 1 1.88174 1 2.2V8.2H7.66667C8.72753 8.2 9.74495 7.82071 10.4951 7.14558C11.2452 6.47045 11.6667 5.55478 11.6667 4.6Z" stroke="#000001" stroke-linecap="round" stroke-linejoin="round"/>
<path d="M13 12.4C13 13.5139 12.5083 14.5822 11.6332 15.3698C10.758 16.1575 9.57101 16.6 8.33333 16.6H2.33333C1.97971 16.6 1.64057 16.4736 1.39052 16.2485C1.14048 16.0235 1 15.7183 1 15.4V8.2H8.33333C9.57101 8.2 10.758 8.6425 11.6332 9.43015C12.5083 10.2178 13 11.2861 13 12.4Z" stroke="#000001" stroke-linecap="round" stroke-linejoin="round"/>
</svg>
