<svg width="18" height="14" viewBox="0 0 18 14" fill="none" xmlns="http://www.w3.org/2000/svg">
<path d="M1.6 2.2C1.93137 2.2 2.2 1.93137 2.2 1.6C2.2 1.26863 1.93137 1 1.6 1C1.26863 1 1 1.26863 1 1.6C1 1.93137 1.26863 2.2 1.6 2.2Z" stroke="#000001" stroke-linecap="round" stroke-linejoin="round"/>
<path d="M5.80005 1.60001H16.6" stroke="#000001" stroke-linecap="round" stroke-linejoin="round"/>
<path d="M1.6 7.59999C1.93137 7.59999 2.2 7.33136 2.2 6.99999C2.2 6.66862 1.93137 6.39999 1.6 6.39999C1.26863 6.39999 1 6.66862 1 6.99999C1 7.33136 1.26863 7.59999 1.6 7.59999Z" stroke="#000001" stroke-linecap="round" stroke-linejoin="round"/>
<path d="M5.80005 7H16.6" stroke="#000001" stroke-linecap="round" stroke-linejoin="round"/>
<path d="M1.6 13C1.93137 13 2.2 12.7314 2.2 12.4C2.2 12.0686 1.93137 11.8 1.6 11.8C1.26863 11.8 1 12.0686 1 12.4C1 12.7314 1.26863 13 1.6 13Z" stroke="#000001" stroke-linecap="round" stroke-linejoin="round"/>
<path d="M5.80005 12.4H16.6" stroke="#000001" stroke-linecap="round" stroke-linejoin="round"/>
</svg>
