<svg width="19" height="20" viewBox="0 0 19 20" fill="none" xmlns="http://www.w3.org/2000/svg">
<path d="M5.59099 9.49402L1.38736 13.999C1.26462 14.1307 1.1672 14.2874 1.10071 14.46C1.03423 14.6326 1 14.8178 1 15.0048C1 15.1918 1.03423 15.377 1.10071 15.5496C1.1672 15.7223 1.26462 15.879 1.38736 16.0107L4.16359 19.014C4.28533 19.1468 4.43016 19.2522 4.58974 19.3241C4.74932 19.396 4.92048 19.433 5.09336 19.433C5.26623 19.433 5.4374 19.396 5.59698 19.3241C5.75656 19.2522 5.90139 19.1468 6.02313 19.014L10.1875 14.4665" stroke="#000001" stroke-linecap="round" stroke-linejoin="round"/>
<path d="M13.4483 10.939L17.6126 6.43402C17.7354 6.30233 17.8328 6.14564 17.8993 5.97301C17.9658 5.80038 18 5.61521 18 5.4282C18 5.24118 17.9658 5.05601 17.8993 4.88338C17.8328 4.71075 17.7354 4.55406 17.6126 4.42237L14.8757 1.41905C14.754 1.28626 14.6091 1.18087 14.4495 1.10895C14.29 1.03703 14.1188 1 13.9459 1C13.773 1 13.6019 1.03703 13.4423 1.10895C13.2827 1.18087 13.1379 1.28626 13.0161 1.41905L8.85181 5.96653" stroke="#000001" stroke-linecap="round" stroke-linejoin="round"/>
<path d="M12.1388 7.38319L6.90063 13.0498" stroke="#000001" stroke-linecap="round" stroke-linejoin="round"/>
</svg>
