<svg width="14" height="18" viewBox="0 0 14 18" fill="none" xmlns="http://www.w3.org/2000/svg">
<path d="M9.84311 10.804C10.0666 11.1429 10.2345 11.5375 10.3364 11.9637C10.4383 12.3898 10.4722 12.8386 10.4359 13.2824C10.3996 13.7262 10.2939 14.1557 10.1253 14.5445C9.95668 14.9333 9.72873 15.2732 9.45542 15.5433C8.73078 16.1862 7.88149 16.5508 7.00482 16.5954C6.12815 16.6399 5.25954 16.3626 4.49849 15.7953L3.66772 15.1834" stroke="#000001" stroke-linecap="round" stroke-linejoin="round"/>
<path d="M9.76917 1.9854C7.92301 0.797583 4.44301 0.0896917 3.6584 3.44918C3.54531 3.94152 3.53265 4.46362 3.62166 4.96424C3.71066 5.46487 3.89828 5.92681 4.16609 6.30474C4.90186 7.0518 5.70847 7.67279 6.56609 8.15246" stroke="#000001" stroke-linecap="round" stroke-linejoin="round"/>
<path d="M1 8.20045H13" stroke="#000001" stroke-linecap="round" stroke-linejoin="round"/>
</svg>
